# xmcd
#
# Track frame offsets: 
#        150
#        21632
#        33532
#        43110
#        57692
#        67170
#        79517
#        92185
#        101742
#        113025
#
# Disc length: 1775 seconds
#
# Revision: 4
# Processed by: cddbd v1.5.2PL0 Copyright (c) Steve Scherf et al.
# Submitted via: ExactAudioCopy v0.99pb5
#
DISCID=9006ed0a
DTITLE=Chris LeDoux - Rodeo Songs, "Old And New"
DYEAR=1991
DGENRE=Country
TTITLE0=Photo Finish
TTITLE1=Copenhagen Angel
TTITLE2=Rodeo Trails
TTITLE3=The Passenger
TTITLE4=Scene We All Ain't Saw
TTITLE5=Old Red
TTITLE6=Strawberry Roan
TTITLE7=Re-Ride
TTITLE8=Someday Soon
TTITLE9=National Finals Rodeo
EXTD=
EXTT0=
EXTT1=
EXTT2=
EXTT3=
EXTT4=
EXTT5=
EXTT6=
EXTT7=
EXTT8=
EXTT9=
PLAYORDER=
